# xmcd
#
# Track frame offsets:
#	150
#	4884
#	19848
#	39884
#	56839
#	73195
#	97103
#	114817
#	128660
#	148038
#	161470
#	180004
#	199721
#
# Disc length: 2940 seconds
#
# Revision: 0
# Processed by: cddbd v1.5.2PL0 Copyright (c) Steve Scherf et al.
# Submitted via: iCDc 5.1 (http://www.waehlby.com/icdc)
#
DISCID=a50b7a0d
DTITLE=Past Perfect - Piece of Mind
DYEAR=2016
DGENRE=Country
TTITLE0=Shanty Prerise
TTITLE1=Peace of Mind
TTITLE2=Great Plains
TTITLE3=Tracklayer's Tale
TTITLE4=A mem'rable Night
TTITLE5=You'll never be like me
TTITLE6=Making Moves
TTITLE7=Continent Trotter
TTITLE8=Past our Prime
TTITLE9=Living with the Devil
TTITLE10=Just my Shame
TTITLE11=Shanty o' Nyne
TTITLE12=Goodbye Unchained
EXTD=
EXTT0=
EXTT1=
EXTT2=
EXTT3=
EXTT4=
EXTT5=
EXTT6=
EXTT7=
EXTT8=
EXTT9=
EXTT10=
EXTT11=
EXTT12=
PLAYORDER=
